<svg width="63" height="43" viewBox="0 0 63 43" fill="none" xmlns="http://www.w3.org/2000/svg">
<g clip-path="url(#clip0_11_2)">
<rect width="63" height="43" rx="5" fill="#4880FF"/>
<path d="M21.3466 31H14.6435V12.0909H21.402C23.304 12.0909 24.9413 12.4695 26.3139 13.2266C27.6866 13.9775 28.7422 15.0578 29.4808 16.4673C30.2256 17.8769 30.598 19.5634 30.598 21.527C30.598 23.4967 30.2256 25.1894 29.4808 26.6051C28.7422 28.0208 27.6804 29.1072 26.2955 29.8643C24.9167 30.6214 23.267 31 21.3466 31ZM18.6413 27.5746H21.1804C22.3622 27.5746 23.3563 27.3653 24.1626 26.9467C24.9751 26.522 25.5845 25.8665 25.9908 24.9801C26.4032 24.0876 26.6094 22.9366 26.6094 21.527C26.6094 20.1297 26.4032 18.9879 25.9908 18.1016C25.5845 17.2152 24.9782 16.5627 24.1719 16.1442C23.3655 15.7256 22.3714 15.5163 21.1896 15.5163H18.6413V27.5746ZM33.5595 31V12.0909H41.1305C42.5216 12.0909 43.6819 12.2971 44.6113 12.7095C45.5408 13.1219 46.2394 13.6944 46.7072 14.4268C47.175 15.1532 47.4089 15.9903 47.4089 16.9382C47.4089 17.6768 47.2612 18.3262 46.9657 18.8864C46.6703 19.4403 46.264 19.8958 45.747 20.2528C45.2361 20.6037 44.6513 20.853 43.9927 21.0007V21.1854C44.7129 21.2161 45.3869 21.4193 46.0147 21.7947C46.6487 22.1702 47.1627 22.6965 47.5566 23.3736C47.9506 24.0445 48.1476 24.8447 48.1476 25.7741C48.1476 26.7775 47.8983 27.6731 47.3997 28.4609C46.9073 29.2427 46.1779 29.8613 45.2115 30.3168C44.2451 30.7723 43.054 31 41.6383 31H33.5595ZM37.5574 27.7315H40.8166C41.9307 27.7315 42.7432 27.5192 43.2541 27.0945C43.765 26.6636 44.0204 26.0911 44.0204 25.3771C44.0204 24.8539 43.8942 24.3923 43.6419 23.9922C43.3895 23.5921 43.0294 23.2782 42.5616 23.0504C42.1 22.8227 41.5491 22.7088 40.9089 22.7088H37.5574V27.7315ZM37.5574 20.0036H40.5211C41.069 20.0036 41.5552 19.9081 41.9799 19.7173C42.4108 19.5204 42.7493 19.2434 42.9956 18.8864C43.2479 18.5294 43.3741 18.1016 43.3741 17.603C43.3741 16.9197 43.131 16.3688 42.6447 15.9503C42.1646 15.5317 41.4814 15.3224 40.595 15.3224H37.5574V20.0036Z" fill="white"/>
</g>
<defs>
<clipPath id="clip0_11_2">
<rect width="63" height="43" fill="white"/>
</clipPath>
</defs>
</svg>
