<svg width="220" height="43" viewBox="0 0 220 43" fill="none" xmlns="http://www.w3.org/2000/svg">
<path d="M76.3835 30H70.4538V13.2727H76.4325C78.1151 13.2727 79.5634 13.6076 80.7777 14.2773C81.992 14.9416 82.9258 15.8973 83.5792 17.1442C84.238 18.3911 84.5675 19.883 84.5675 21.62C84.5675 23.3625 84.238 24.8598 83.5792 26.1122C82.9258 27.3646 81.9865 28.3256 80.7614 28.9954C79.5417 29.6651 78.0824 30 76.3835 30ZM73.9904 26.9698H76.2365C77.282 26.9698 78.1613 26.7847 78.8746 26.4144C79.5934 26.0387 80.1325 25.4588 80.4918 24.6747C80.8567 23.8852 81.0391 22.867 81.0391 21.62C81.0391 20.384 80.8567 19.3739 80.4918 18.5898C80.1325 17.8058 79.5961 17.2286 78.8828 16.8583C78.1695 16.488 77.2901 16.3029 76.2447 16.3029H73.9904V26.9698ZM89.127 30H85.3373L91.1118 13.2727H95.6693L101.436 30H97.6459L93.4559 17.0952H93.3252L89.127 30ZM88.8902 23.4251H97.8419V26.1857H88.8902V23.4251ZM112.141 18.0835C112.076 17.4246 111.796 16.9128 111.3 16.5479C110.805 16.1831 110.132 16.0007 109.283 16.0007C108.705 16.0007 108.218 16.0824 107.821 16.2457C107.423 16.4036 107.118 16.6242 106.906 16.9073C106.699 17.1905 106.596 17.5117 106.596 17.8711C106.585 18.1706 106.647 18.4319 106.783 18.6552C106.925 18.8784 107.118 19.0717 107.363 19.2351C107.608 19.393 107.891 19.5318 108.213 19.6516C108.534 19.766 108.877 19.864 109.242 19.9457L110.745 20.305C111.474 20.4684 112.144 20.6862 112.754 20.9585C113.364 21.2307 113.892 21.5656 114.338 21.9631C114.785 22.3606 115.131 22.8288 115.376 23.3679C115.626 23.907 115.754 24.525 115.76 25.2219C115.754 26.2456 115.493 27.1332 114.975 27.8846C114.464 28.6306 113.723 29.2105 112.754 29.6243C111.79 30.0327 110.628 30.2369 109.266 30.2369C107.916 30.2369 106.74 30.0299 105.738 29.6161C104.741 29.2023 103.963 28.5897 103.402 27.7784C102.847 26.9616 102.555 25.9516 102.528 24.7482H105.95C105.988 25.3091 106.149 25.7773 106.432 26.1531C106.721 26.5233 107.105 26.8037 107.584 26.9943C108.068 27.1795 108.616 27.272 109.225 27.272C109.824 27.272 110.344 27.1849 110.786 27.0107C111.232 26.8364 111.578 26.5941 111.823 26.2837C112.068 25.9734 112.19 25.6167 112.19 25.2138C112.19 24.8381 112.079 24.5223 111.855 24.2663C111.638 24.0104 111.316 23.7926 110.892 23.6129C110.472 23.4332 109.958 23.2699 109.348 23.1229L107.527 22.6655C106.116 22.3224 105.003 21.7861 104.186 21.0565C103.369 20.3268 102.964 19.344 102.969 18.108C102.964 17.0952 103.233 16.2103 103.778 15.4535C104.328 14.6966 105.082 14.1058 106.04 13.6811C106.998 13.2564 108.087 13.044 109.307 13.044C110.549 13.044 111.632 13.2564 112.558 13.6811C113.489 14.1058 114.213 14.6966 114.73 15.4535C115.248 16.2103 115.515 17.087 115.531 18.0835H112.141ZM118.138 30V13.2727H121.675V20.1744H128.854V13.2727H132.383V30H128.854V23.0902H121.675V30H118.138ZM135.299 30V13.2727H141.996C143.227 13.2727 144.253 13.4551 145.075 13.82C145.897 14.1848 146.515 14.6912 146.929 15.3391C147.343 15.9817 147.55 16.7222 147.55 17.5607C147.55 18.2141 147.419 18.7886 147.158 19.2841C146.897 19.7741 146.537 20.1771 146.08 20.4929C145.628 20.8033 145.111 21.0238 144.528 21.1545V21.3178C145.165 21.3451 145.761 21.5247 146.317 21.8569C146.878 22.189 147.332 22.6546 147.681 23.2536C148.029 23.8471 148.203 24.5549 148.203 25.3771C148.203 26.2647 147.983 27.0569 147.542 27.7539C147.106 28.4454 146.461 28.9927 145.606 29.3956C144.751 29.7985 143.698 30 142.445 30H135.299ZM138.835 27.1087H141.718C142.704 27.1087 143.423 26.9208 143.875 26.5451C144.326 26.1639 144.552 25.6576 144.552 25.0259C144.552 24.5631 144.441 24.1547 144.218 23.8008C143.994 23.4469 143.676 23.1692 143.262 22.9677C142.854 22.7662 142.366 22.6655 141.8 22.6655H138.835V27.1087ZM138.835 20.2724H141.457C141.942 20.2724 142.372 20.188 142.747 20.0192C143.129 19.8449 143.428 19.5999 143.646 19.2841C143.869 18.9683 143.981 18.5898 143.981 18.1488C143.981 17.5444 143.766 17.0571 143.335 16.6868C142.911 16.3165 142.306 16.1314 141.522 16.1314H138.835V20.2724ZM165.876 21.6364C165.876 23.4605 165.53 25.0123 164.839 26.2919C164.153 27.5715 163.216 28.5489 162.029 29.2241C160.848 29.8938 159.519 30.2287 158.043 30.2287C156.557 30.2287 155.223 29.8911 154.041 29.2159C152.86 28.5407 151.926 27.5633 151.24 26.2837C150.554 25.0041 150.211 23.455 150.211 21.6364C150.211 19.8123 150.554 18.2604 151.24 16.9808C151.926 15.7012 152.86 14.7266 154.041 14.0568C155.223 13.3816 156.557 13.044 158.043 13.044C159.519 13.044 160.848 13.3816 162.029 14.0568C163.216 14.7266 164.153 15.7012 164.839 16.9808C165.53 18.2604 165.876 19.8123 165.876 21.6364ZM162.29 21.6364C162.29 20.4548 162.114 19.4583 161.76 18.647C161.411 17.8357 160.918 17.2204 160.281 16.8011C159.644 16.3819 158.898 16.1722 158.043 16.1722C157.188 16.1722 156.442 16.3819 155.805 16.8011C155.168 17.2204 154.673 17.8357 154.319 18.647C153.97 19.4583 153.796 20.4548 153.796 21.6364C153.796 22.8179 153.97 23.8144 154.319 24.6257C154.673 25.437 155.168 26.0523 155.805 26.4716C156.442 26.8909 157.188 27.1005 158.043 27.1005C158.898 27.1005 159.644 26.8909 160.281 26.4716C160.918 26.0523 161.411 25.437 161.76 24.6257C162.114 23.8144 162.29 22.8179 162.29 21.6364ZM170.436 30H166.646L172.42 13.2727H176.978L182.744 30H178.954L174.764 17.0952H174.634L170.436 30ZM170.199 23.4251H179.15V26.1857H170.199V23.4251ZM184.758 30V13.2727H191.357C192.62 13.2727 193.698 13.4987 194.591 13.9506C195.49 14.3971 196.173 15.0315 196.641 15.8537C197.115 16.6705 197.352 17.6315 197.352 18.7369C197.352 19.8477 197.112 20.8033 196.633 21.6037C196.154 22.3987 195.46 23.0085 194.551 23.4332C193.647 23.858 192.552 24.0703 191.267 24.0703H186.848V21.228H190.695C191.371 21.228 191.931 21.1354 192.378 20.9503C192.824 20.7652 193.157 20.4875 193.374 20.1172C193.598 19.7469 193.709 19.2868 193.709 18.7369C193.709 18.1815 193.598 17.7132 193.374 17.332C193.157 16.9509 192.822 16.6623 192.37 16.4663C191.923 16.2648 191.36 16.1641 190.679 16.1641H188.294V30H184.758ZM193.791 22.3878L197.948 30H194.044L189.977 22.3878H193.791ZM205.781 30H199.851V13.2727H205.83C207.513 13.2727 208.961 13.6076 210.175 14.2773C211.389 14.9416 212.323 15.8973 212.977 17.1442C213.636 18.3911 213.965 19.883 213.965 21.62C213.965 23.3625 213.636 24.8598 212.977 26.1122C212.323 27.3646 211.384 28.3256 210.159 28.9954C208.939 29.6651 207.48 30 205.781 30ZM203.388 26.9698H205.634C206.679 26.9698 207.559 26.7847 208.272 26.4144C208.991 26.0387 209.53 25.4588 209.889 24.6747C210.254 23.8852 210.437 22.867 210.437 21.62C210.437 20.384 210.254 19.3739 209.889 18.5898C209.53 17.8058 208.994 17.2286 208.28 16.8583C207.567 16.488 206.688 16.3029 205.642 16.3029H203.388V26.9698Z" fill="white"/>
<rect y="3" width="63" height="37" rx="5" fill="#4880FF"/>
<path d="M21.3466 31H14.6435V12.0909H21.402C23.304 12.0909 24.9413 12.4695 26.3139 13.2266C27.6866 13.9775 28.7422 15.0578 29.4808 16.4673C30.2256 17.8769 30.598 19.5634 30.598 21.527C30.598 23.4967 30.2256 25.1894 29.4808 26.6051C28.7422 28.0208 27.6804 29.1072 26.2955 29.8643C24.9167 30.6214 23.267 31 21.3466 31ZM18.6413 27.5746H21.1804C22.3622 27.5746 23.3563 27.3653 24.1626 26.9467C24.9751 26.522 25.5845 25.8665 25.9908 24.9801C26.4032 24.0876 26.6094 22.9366 26.6094 21.527C26.6094 20.1297 26.4032 18.9879 25.9908 18.1016C25.5845 17.2152 24.9782 16.5627 24.1719 16.1442C23.3655 15.7256 22.3714 15.5163 21.1896 15.5163H18.6413V27.5746ZM33.5595 31V12.0909H41.1305C42.5216 12.0909 43.6819 12.2971 44.6113 12.7095C45.5408 13.1219 46.2394 13.6944 46.7072 14.4268C47.175 15.1532 47.4089 15.9903 47.4089 16.9382C47.4089 17.6768 47.2612 18.3262 46.9657 18.8864C46.6703 19.4403 46.264 19.8958 45.747 20.2528C45.2361 20.6037 44.6513 20.853 43.9927 21.0007V21.1854C44.7129 21.2161 45.3869 21.4193 46.0147 21.7947C46.6487 22.1702 47.1627 22.6965 47.5566 23.3736C47.9506 24.0445 48.1476 24.8447 48.1476 25.7741C48.1476 26.7775 47.8983 27.6731 47.3997 28.4609C46.9073 29.2427 46.1779 29.8613 45.2115 30.3168C44.2451 30.7723 43.054 31 41.6383 31H33.5595ZM37.5574 27.7315H40.8166C41.9307 27.7315 42.7432 27.5192 43.2541 27.0945C43.765 26.6636 44.0204 26.0911 44.0204 25.3771C44.0204 24.8539 43.8942 24.3923 43.6419 23.9922C43.3895 23.5921 43.0294 23.2782 42.5616 23.0504C42.1 22.8227 41.5491 22.7088 40.9089 22.7088H37.5574V27.7315ZM37.5574 20.0036H40.5211C41.069 20.0036 41.5552 19.9081 41.9799 19.7173C42.4108 19.5204 42.7493 19.2434 42.9956 18.8864C43.2479 18.5294 43.3741 18.1016 43.3741 17.603C43.3741 16.9197 43.131 16.3688 42.6447 15.9503C42.1646 15.5317 41.4814 15.3224 40.595 15.3224H37.5574V20.0036Z" fill="white"/>
<rect y="3" width="63" height="37" rx="5" fill="#4880FF"/>
<path d="M21.3466 31H14.6435V12.0909H21.402C23.304 12.0909 24.9413 12.4695 26.3139 13.2266C27.6866 13.9775 28.7422 15.0578 29.4808 16.4673C30.2256 17.8769 30.598 19.5634 30.598 21.527C30.598 23.4967 30.2256 25.1894 29.4808 26.6051C28.7422 28.0208 27.6804 29.1072 26.2955 29.8643C24.9167 30.6214 23.267 31 21.3466 31ZM18.6413 27.5746H21.1804C22.3622 27.5746 23.3563 27.3653 24.1626 26.9467C24.9751 26.522 25.5845 25.8665 25.9908 24.9801C26.4032 24.0876 26.6094 22.9366 26.6094 21.527C26.6094 20.1297 26.4032 18.9879 25.9908 18.1016C25.5845 17.2152 24.9782 16.5627 24.1719 16.1442C23.3655 15.7256 22.3714 15.5163 21.1896 15.5163H18.6413V27.5746ZM33.5595 31V12.0909H41.1305C42.5216 12.0909 43.6819 12.2971 44.6113 12.7095C45.5408 13.1219 46.2394 13.6944 46.7072 14.4268C47.175 15.1532 47.4089 15.9903 47.4089 16.9382C47.4089 17.6768 47.2612 18.3262 46.9657 18.8864C46.6703 19.4403 46.264 19.8958 45.747 20.2528C45.2361 20.6037 44.6513 20.853 43.9927 21.0007V21.1854C44.7129 21.2161 45.3869 21.4193 46.0147 21.7947C46.6487 22.1702 47.1627 22.6965 47.5566 23.3736C47.9506 24.0445 48.1476 24.8447 48.1476 25.7741C48.1476 26.7775 47.8983 27.6731 47.3997 28.4609C46.9073 29.2427 46.1779 29.8613 45.2115 30.3168C44.2451 30.7723 43.054 31 41.6383 31H33.5595ZM37.5574 27.7315H40.8166C41.9307 27.7315 42.7432 27.5192 43.2541 27.0945C43.765 26.6636 44.0204 26.0911 44.0204 25.3771C44.0204 24.8539 43.8942 24.3923 43.6419 23.9922C43.3895 23.5921 43.0294 23.2782 42.5616 23.0504C42.1 22.8227 41.5491 22.7088 40.9089 22.7088H37.5574V27.7315ZM37.5574 20.0036H40.5211C41.069 20.0036 41.5552 19.9081 41.9799 19.7173C42.4108 19.5204 42.7493 19.2434 42.9956 18.8864C43.2479 18.5294 43.3741 18.1016 43.3741 17.603C43.3741 16.9197 43.131 16.3688 42.6447 15.9503C42.1646 15.5317 41.4814 15.3224 40.595 15.3224H37.5574V20.0036Z" fill="white"/>
</svg>
