<svg width="220" height="43" viewBox="0 0 220 43" fill="none" xmlns="http://www.w3.org/2000/svg">
<rect width="220" height="43" rx="5" fill="#4880FF"/>
<rect x="5" y="5" width="52.8512" height="31.9565" rx="5" fill="white"/>
<path d="M23.0625 29H17.3906V13H23.1094C24.7188 13 26.1042 13.3203 27.2656 13.9609C28.4271 14.5964 29.3203 15.5104 29.9453 16.7031C30.5755 17.8958 30.8906 19.3229 30.8906 20.9844C30.8906 22.651 30.5755 24.0833 29.9453 25.2812C29.3203 26.4792 28.4219 27.3984 27.25 28.0391C26.0833 28.6797 24.6875 29 23.0625 29ZM20.7734 26.1016H22.9219C23.9219 26.1016 24.763 25.9245 25.4453 25.5703C26.1328 25.2109 26.6484 24.6562 26.9922 23.9062C27.3411 23.151 27.5156 22.1771 27.5156 20.9844C27.5156 19.8021 27.3411 18.8359 26.9922 18.0859C26.6484 17.3359 26.1354 16.7839 25.4531 16.4297C24.7708 16.0755 23.9297 15.8984 22.9297 15.8984H20.7734V26.1016ZM33.3965 29V13H39.8027C40.9798 13 41.9616 13.1745 42.748 13.5234C43.5345 13.8724 44.1257 14.3568 44.5215 14.9766C44.9173 15.5911 45.1152 16.2995 45.1152 17.1016C45.1152 17.7266 44.9902 18.276 44.7402 18.75C44.4902 19.2187 44.1465 19.6042 43.709 19.9062C43.2767 20.2031 42.7819 20.4141 42.2246 20.5391V20.6953C42.834 20.7214 43.4043 20.8932 43.9355 21.2109C44.472 21.5286 44.9069 21.974 45.2402 22.5469C45.5736 23.1146 45.7402 23.7917 45.7402 24.5781C45.7402 25.4271 45.5293 26.1849 45.1074 26.8516C44.6908 27.513 44.0736 28.0365 43.2559 28.4219C42.4382 28.8073 41.4303 29 40.2324 29H33.3965ZM36.7793 26.2344H39.5371C40.4798 26.2344 41.1673 26.0547 41.5996 25.6953C42.0319 25.3307 42.248 24.8464 42.248 24.2422C42.248 23.7995 42.1413 23.4089 41.9277 23.0703C41.7142 22.7318 41.4095 22.4661 41.0137 22.2734C40.623 22.0807 40.1569 21.9844 39.6152 21.9844H36.7793V26.2344ZM36.7793 19.6953H39.2871C39.7507 19.6953 40.1621 19.6146 40.5215 19.4531C40.8861 19.2865 41.1725 19.0521 41.3809 18.75C41.5944 18.4479 41.7012 18.0859 41.7012 17.6641C41.7012 17.0859 41.4954 16.6198 41.084 16.2656C40.6777 15.9115 40.0996 15.7344 39.3496 15.7344H36.7793V19.6953Z" fill="#4880FF"/>
<path d="M73.3835 30H67.4538V13.2727H73.4325C75.1151 13.2727 76.5634 13.6076 77.7777 14.2773C78.992 14.9416 79.9258 15.8973 80.5792 17.1442C81.238 18.3911 81.5675 19.883 81.5675 21.62C81.5675 23.3625 81.238 24.8598 80.5792 26.1122C79.9258 27.3646 78.9865 28.3256 77.7614 28.9954C76.5417 29.6651 75.0824 30 73.3835 30ZM70.9904 26.9698H73.2365C74.282 26.9698 75.1613 26.7847 75.8746 26.4144C76.5934 26.0387 77.1325 25.4588 77.4918 24.6747C77.8567 23.8852 78.0391 22.867 78.0391 21.62C78.0391 20.384 77.8567 19.3739 77.4918 18.5898C77.1325 17.8058 76.5961 17.2286 75.8828 16.8583C75.1695 16.488 74.2901 16.3029 73.2447 16.3029H70.9904V26.9698ZM86.127 30H82.3373L88.1118 13.2727H92.6693L98.4356 30H94.6459L90.4559 17.0952H90.3252L86.127 30ZM85.8902 23.4251H94.8419V26.1857H85.8902V23.4251ZM109.141 18.0835C109.076 17.4246 108.796 16.9128 108.3 16.5479C107.805 16.1831 107.132 16.0007 106.283 16.0007C105.705 16.0007 105.218 16.0824 104.821 16.2457C104.423 16.4036 104.118 16.6242 103.906 16.9073C103.699 17.1905 103.596 17.5117 103.596 17.8711C103.585 18.1706 103.647 18.4319 103.783 18.6552C103.925 18.8784 104.118 19.0717 104.363 19.2351C104.608 19.393 104.891 19.5318 105.213 19.6516C105.534 19.766 105.877 19.864 106.242 19.9457L107.745 20.305C108.474 20.4684 109.144 20.6862 109.754 20.9585C110.364 21.2307 110.892 21.5656 111.338 21.9631C111.785 22.3606 112.131 22.8288 112.376 23.3679C112.626 23.907 112.754 24.525 112.76 25.2219C112.754 26.2456 112.493 27.1332 111.975 27.8846C111.464 28.6306 110.723 29.2105 109.754 29.6243C108.79 30.0327 107.628 30.2369 106.266 30.2369C104.916 30.2369 103.74 30.0299 102.738 29.6161C101.741 29.2023 100.963 28.5897 100.402 27.7784C99.8466 26.9616 99.5553 25.9516 99.5281 24.7482H102.95C102.988 25.3091 103.149 25.7773 103.432 26.1531C103.721 26.5233 104.105 26.8037 104.584 26.9943C105.068 27.1795 105.616 27.272 106.225 27.272C106.824 27.272 107.344 27.1849 107.786 27.0107C108.232 26.8364 108.578 26.5941 108.823 26.2837C109.068 25.9734 109.19 25.6167 109.19 25.2138C109.19 24.8381 109.079 24.5223 108.855 24.2663C108.638 24.0104 108.316 23.7926 107.892 23.6129C107.472 23.4332 106.958 23.2699 106.348 23.1229L104.527 22.6655C103.116 22.3224 102.003 21.7861 101.186 21.0565C100.369 20.3268 99.9637 19.344 99.9691 18.108C99.9637 17.0952 100.233 16.2103 100.778 15.4535C101.328 14.6966 102.082 14.1058 103.04 13.6811C103.998 13.2564 105.087 13.044 106.307 13.044C107.549 13.044 108.632 13.2564 109.558 13.6811C110.489 14.1058 111.213 14.6966 111.73 15.4535C112.248 16.2103 112.515 17.087 112.531 18.0835H109.141ZM115.138 30V13.2727H118.675V20.1744H125.854V13.2727H129.383V30H125.854V23.0902H118.675V30H115.138ZM132.299 30V13.2727H138.996C140.227 13.2727 141.253 13.4551 142.075 13.82C142.897 14.1848 143.515 14.6912 143.929 15.3391C144.343 15.9817 144.55 16.7222 144.55 17.5607C144.55 18.2141 144.419 18.7886 144.158 19.2841C143.897 19.7741 143.537 20.1771 143.08 20.4929C142.628 20.8033 142.111 21.0238 141.528 21.1545V21.3178C142.165 21.3451 142.761 21.5247 143.317 21.8569C143.878 22.189 144.332 22.6546 144.681 23.2536C145.029 23.8471 145.203 24.5549 145.203 25.3771C145.203 26.2647 144.983 27.0569 144.542 27.7539C144.106 28.4454 143.461 28.9927 142.606 29.3956C141.751 29.7985 140.698 30 139.445 30H132.299ZM135.835 27.1087H138.718C139.704 27.1087 140.423 26.9208 140.875 26.5451C141.326 26.1639 141.552 25.6576 141.552 25.0259C141.552 24.5631 141.441 24.1547 141.218 23.8008C140.994 23.4469 140.676 23.1692 140.262 22.9677C139.854 22.7662 139.366 22.6655 138.8 22.6655H135.835V27.1087ZM135.835 20.2724H138.457C138.942 20.2724 139.372 20.188 139.747 20.0192C140.129 19.8449 140.428 19.5999 140.646 19.2841C140.869 18.9683 140.981 18.5898 140.981 18.1488C140.981 17.5444 140.766 17.0571 140.335 16.6868C139.911 16.3165 139.306 16.1314 138.522 16.1314H135.835V20.2724ZM162.876 21.6364C162.876 23.4605 162.53 25.0123 161.839 26.2919C161.153 27.5715 160.216 28.5489 159.029 29.2241C157.848 29.8938 156.519 30.2287 155.043 30.2287C153.557 30.2287 152.223 29.8911 151.041 29.2159C149.86 28.5407 148.926 27.5633 148.24 26.2837C147.554 25.0041 147.211 23.455 147.211 21.6364C147.211 19.8123 147.554 18.2604 148.24 16.9808C148.926 15.7012 149.86 14.7266 151.041 14.0568C152.223 13.3816 153.557 13.044 155.043 13.044C156.519 13.044 157.848 13.3816 159.029 14.0568C160.216 14.7266 161.153 15.7012 161.839 16.9808C162.53 18.2604 162.876 19.8123 162.876 21.6364ZM159.29 21.6364C159.29 20.4548 159.114 19.4583 158.76 18.647C158.411 17.8357 157.918 17.2204 157.281 16.8011C156.644 16.3819 155.898 16.1722 155.043 16.1722C154.188 16.1722 153.442 16.3819 152.805 16.8011C152.168 17.2204 151.673 17.8357 151.319 18.647C150.97 19.4583 150.796 20.4548 150.796 21.6364C150.796 22.8179 150.97 23.8144 151.319 24.6257C151.673 25.437 152.168 26.0523 152.805 26.4716C153.442 26.8909 154.188 27.1005 155.043 27.1005C155.898 27.1005 156.644 26.8909 157.281 26.4716C157.918 26.0523 158.411 25.437 158.76 24.6257C159.114 23.8144 159.29 22.8179 159.29 21.6364ZM167.436 30H163.646L169.42 13.2727H173.978L179.744 30H175.954L171.764 17.0952H171.634L167.436 30ZM167.199 23.4251H176.15V26.1857H167.199V23.4251ZM181.758 30V13.2727H188.357C189.62 13.2727 190.698 13.4987 191.591 13.9506C192.49 14.3971 193.173 15.0315 193.641 15.8537C194.115 16.6705 194.352 17.6315 194.352 18.7369C194.352 19.8477 194.112 20.8033 193.633 21.6037C193.154 22.3987 192.46 23.0085 191.551 23.4332C190.647 23.858 189.552 24.0703 188.267 24.0703H183.848V21.228H187.695C188.371 21.228 188.931 21.1354 189.378 20.9503C189.824 20.7652 190.157 20.4875 190.374 20.1172C190.598 19.7469 190.709 19.2868 190.709 18.7369C190.709 18.1815 190.598 17.7132 190.374 17.332C190.157 16.9509 189.822 16.6623 189.37 16.4663C188.923 16.2648 188.36 16.1641 187.679 16.1641H185.294V30H181.758ZM190.791 22.3878L194.948 30H191.044L186.977 22.3878H190.791ZM202.781 30H196.851V13.2727H202.83C204.513 13.2727 205.961 13.6076 207.175 14.2773C208.389 14.9416 209.323 15.8973 209.977 17.1442C210.636 18.3911 210.965 19.883 210.965 21.62C210.965 23.3625 210.636 24.8598 209.977 26.1122C209.323 27.3646 208.384 28.3256 207.159 28.9954C205.939 29.6651 204.48 30 202.781 30ZM200.388 26.9698H202.634C203.679 26.9698 204.559 26.7847 205.272 26.4144C205.991 26.0387 206.53 25.4588 206.889 24.6747C207.254 23.8852 207.437 22.867 207.437 21.62C207.437 20.384 207.254 19.3739 206.889 18.5898C206.53 17.8058 205.994 17.2286 205.28 16.8583C204.567 16.488 203.688 16.3029 202.642 16.3029H200.388V26.9698Z" fill="white"/>
</svg>
